<svg xmlns="http://www.w3.org/2000/svg" xmlns:xlink="http://www.w3.org/1999/xlink" width="100" height="100" viewBox="0 0 100 100">
  <defs>
    <clipPath id="clip-custom_1">
      <rect width="100" height="100"/>
    </clipPath>
  </defs>
  <g id="custom_1" data-name="custom – 1" clip-path="url(#clip-custom_1)">
    <path id="diamond" d="M97.993,33.876,82.438,9.355a2.556,2.556,0,0,0-1.649-1.183L49.68,2.042a2.2,2.2,0,0,0-.85,0L17.721,8.172a2.556,2.556,0,0,0-1.649,1.183L.517,33.876a3.51,3.51,0,0,0,.145,3.887l46.664,61.3a2.337,2.337,0,0,0,3.858,0l46.664-61.3A3.491,3.491,0,0,0,97.993,33.876Zm-31.7-1.226L49.255,88.05,32.218,32.65H66.293ZM34.774,26.52,49.255,9.4,63.736,26.52ZM56.809,9.662l19.174,3.776L69.59,24.773,56.8,9.662ZM28.92,24.773,22.527,13.438,41.7,9.662Zm-4.708,2.7L8.735,31.136,18.021,16.5Zm2.629,5.634,15.42,50.14L7.564,37.665,26.841,33.1Zm44.828,0,19.277,4.561-34.7,45.585,15.42-50.14ZM74.3,27.476,80.489,16.5l9.286,14.639L74.3,27.476Z" transform="translate(1 -1.084)" fill="#bf9b30"/>
  </g>
</svg>
